<svg xmlns="http://www.w3.org/2000/svg" viewBox="0 0 1450 1000" width="1450" height="1000">
<defs>
<linearGradient id="bg" x1="0" y1="0" x2="1" y2="1"><stop offset="0" stop-color="#1e1b4b"/><stop offset="1" stop-color="#6d28d9"/></linearGradient>
<radialGradient id="glow" cx=".78" cy=".3" r=".6"><stop offset="0" stop-color="#c4b5fd" stop-opacity=".55"/><stop offset="1" stop-color="#c4b5fd" stop-opacity="0"/></radialGradient>
<pattern id="dots" width="28" height="28" patternUnits="userSpaceOnUse"><circle cx="2" cy="2" r="1.4" fill="#fff" opacity=".07"/></pattern>
</defs>
<rect width="1450" height="1000" fill="url(#bg)"/>
<rect width="1450" height="1000" fill="url(#dots)"/>
<rect width="1450" height="1000" fill="url(#glow)"/>
<polygon points="1030,520 1260,590 1030,660 800,590" fill="#fff" fill-opacity="0.06" stroke="#ddd6fe" stroke-opacity="0.35" stroke-width="3"/><polygon points="1030,458 1260,528 1030,598 800,528" fill="#fff" fill-opacity="0.11" stroke="#ddd6fe" stroke-opacity="0.47" stroke-width="3"/><polygon points="1030,396 1260,466 1030,536 800,466" fill="#fff" fill-opacity="0.16" stroke="#ddd6fe" stroke-opacity="0.59" stroke-width="3"/><polygon points="1030,334 1260,404 1030,474 800,404" fill="#fff" fill-opacity="0.21000000000000002" stroke="#ddd6fe" stroke-opacity="0.71" stroke-width="3"/><polygon points="1030,272 1260,342 1030,412 800,342" fill="#fff" fill-opacity="0.26" stroke="#ddd6fe" stroke-opacity="0.83" stroke-width="3"/><circle cx="1030" cy="342" r="10" fill="#ddd6fe"/>
<text x="96" y="120" font-family="ui-monospace,SFMono-Regular,Menlo,Consolas,monospace" font-size="30" letter-spacing="3" fill="#fff" opacity=".72">OPENMF / TENANT-MANAGEMENT</text>
<text x="96" y="758" font-family="-apple-system,BlinkMacSystemFont,'Segoe UI',Helvetica,Arial,sans-serif" font-size="84" font-weight="700" letter-spacing="-2" fill="#fff"><tspan x="96" dy="0">Tenant</tspan><tspan x="96" dy="92">management</tspan></text>
<text x="96" y="912" font-family="ui-monospace,SFMono-Regular,Menlo,Consolas,monospace" font-size="28" fill="#fff" opacity=".6">Java 25 · Spring Boot 4.1</text>
</svg>
